Coordinates
version=1
nRows=32
nColumns=22
inDegrees=yes

Units are S.I. units (second, meters, Newtons, ...)
If the header above contains a line with 'inDegrees', this indicates whether rotational values are in degrees (yes) or radians (no).

endheader
time	pelvis_tilt	pelvis_list	pelvis_rotation	pelvis_tx	pelvis_ty	pelvis_tz	hip_flexion_r	hip_adduction_r	hip_rotation_r	knee_angle_r	ankle_angle_r	subtalar_angle_r	hip_flexion_l	hip_adduction_l	hip_rotation_l	knee_angle_l	ankle_angle_l	subtalar_angle_l	lumbar_extension	lumbar_bending	lumbar_rotation
      6.33000000	      0.48823974	     -0.90155618	   -116.05787373	      0.74759686	      1.00326533	      0.34796304	     10.97038690	     -1.58236559	     -0.74965445	    -58.12128942	      1.93299909	     -1.29935255	     13.25466956	      1.85370628	      1.84485768	    -18.40177216	      7.41848613	      5.06817308	    -13.56562363	     -3.16301477	      1.74916613
      6.34000000	      0.48183677	     -0.99726658	   -116.50466751	      0.74645673	      1.00408046	      0.35347175	     11.72411517	     -1.91400494	     -1.41138562	    -58.29900207	      2.94156789	     -1.79398886	     12.67833297	      1.93605628	      1.47254505	    -18.21142528	      7.65227414	      4.86320339	    -13.73050403	     -3.19619099	      1.52357821
      6.35000000	      0.43387919	     -1.07640978	   -116.92568723	      0.74520095	      1.00489879	      0.35887184	     12.41436841	     -2.12126057	     -2.01352453	    -58.24259253	      3.90109053	     -2.22681483	     12.10095517	      1.96907077	      1.11497900	    -18.01614546	      7.88461840	      4.67145248	    -13.89448296	     -3.19178977	      1.31270333
      6.36000000	      0.34798542	     -1.13730678	   -117.31874235	      0.74385933	      1.00570232	      0.36415345	     13.04653581	     -2.21563274	     -2.56801513	    -57.96359594	      4.80171269	     -2.55115417	     11.53374074	      1.95503567	      0.76043419	    -17.82843113	      8.13621489	      4.49620322	    -14.06040003	     -3.14570287	      1.10558739
      6.37000000	      0.25423509	     -1.13911606	   -117.68263068	      0.74243355	      1.00639410	      0.36930139	     13.68651210	     -2.20901738	     -3.07086582	    -57.49549211	      5.65393989	     -2.65427556	     11.03734167	      1.90101322	      0.40962791	    -17.66090880	      8.39415186	      4.42140228	    -14.16920959	     -3.06722903	      0.85774998
      6.38000000	      0.13612479	     -1.21085933	   -118.05174952	      0.74090179	      1.00718686	      0.37440445	     14.18843697	     -2.17679796	     -3.53554437	    -56.82826710	      6.44190176	     -2.79975008	     10.42688251	      1.85774431	      0.05748983	    -17.42811182	      8.63466737	      4.20821787	    -14.36055820	     -3.00987295	      0.66299562
      6.39000000	      0.04425625	     -1.20677709	   -118.39051441	      0.73935280	      1.00777937	      0.37939151	     14.74858440	     -2.11336426	     -4.00691072	    -56.02987818	      7.20694756	     -2.78000481	      9.93050755	      1.80350606	     -0.27778234	    -17.23461826	      8.88205342	      4.11149403	    -14.46273925	     -2.93858526	      0.46256108
      6.40000000	     -0.02402440	     -1.18303083	   -118.72428608	      0.73770688	      1.00828329	      0.38430242	     15.29785266	     -2.03445539	     -4.44333603	    -55.08693797	      7.93346058	     -2.72846652	      9.46099455	      1.75891933	     -0.60891879	    -17.03056835	      9.11120621	      4.03733678	    -14.52723584	     -2.88873566	      0.23638519
      6.41000000	     -0.15041737	     -1.25213742	   -119.06531333	      0.73602728	      1.00892586	      0.38919877	     15.68410514	     -1.96240605	     -4.90453518	    -54.00547930	      8.59599676	     -2.48851383	      8.84740605	      1.71161842	     -0.95481727	    -16.77827031	      9.36335690	      3.84756948	    -14.72559207	     -2.82289077	      0.06623555
      6.42000000	     -0.22471759	     -1.26614927	   -119.39996296	      0.73428958	      1.00938035	      0.39401791	     16.12846953	     -1.91855584	     -5.38532882	    -52.84172292	      9.24419221	     -2.29712236	      8.32645837	      1.68645963	     -1.28456030	    -16.54645764	      9.59297935	      3.71529391	    -14.83460333	     -2.78649971	     -0.11690697
      6.43000000	     -0.24510426	     -1.22249699	   -119.73572153	      0.73252931	      1.00963952	      0.39874902	     16.64172597	     -1.90962919	     -5.89292972	    -51.61314662	      9.87711078	     -2.22389760	      7.90712915	      1.68290335	     -1.61985383	    -16.34087694	      9.80688873	      3.65379742	    -14.85816101	     -2.76909466	     -0.28616776
      6.44000000	     -0.33982490	     -1.28286449	   -120.09023567	      0.73069384	      1.01007605	      0.40349253	     16.97341171	     -1.91226273	     -6.45112154	    -50.28051822	     10.42630430	     -2.02805320	      7.32305852	      1.66935787	     -1.96285079	    -16.09266323	     10.05765299	      3.48530815	    -15.02918306	     -2.73110121	     -0.41455675
      6.45000000	     -0.38306937	     -1.29027492	   -120.45454713	      0.72879965	      1.01033464	      0.40814733	     17.37325295	     -1.94613917	     -7.03624712	    -48.90888259	     10.95465468	     -1.95345058	      6.83138906	      1.67582374	     -2.31158980	    -15.86723624	     10.28610663	      3.35949398	    -15.11768946	     -2.71709543	     -0.54217358
      6.46000000	     -0.42545722	     -1.29481981	   -120.83471954	      0.72683445	      1.01054251	      0.41274023	     17.75748606	     -1.99110231	     -7.66091522	    -47.48756041	     11.42857412	     -1.93811906	      6.34807773	      1.68191700	     -2.67332204	    -15.65085754	     10.51975430	      3.23793469	    -15.20401690	     -2.70183213	     -0.64659152
      6.47000000	     -0.41589225	     -1.24897815	   -121.22862885	      0.72482489	      1.01057363	      0.41724578	     18.21687167	     -2.06478847	     -8.31581427	    -46.05368519	     11.88495389	     -1.94371691	      5.96527474	      1.70780176	     -3.05745028	    -15.47546294	     10.72451761	      3.17037172	    -15.20986985	     -2.70476653	     -0.73472659
      6.48000000	     -0.50951764	     -1.28860221	   -121.64741397	      0.72266180	      1.01080113	      0.42171267	     18.49800556	     -2.08415941	     -9.01541614	    -44.54030685	     12.18307287	     -2.03598681	      5.41672104	      1.68468962	     -3.44331889	    -15.25467899	     10.99393117	      3.00450143	    -15.36389658	     -2.66503755	     -0.78541802
      6.49000000	     -0.54082864	     -1.27167508	   -122.08000073	      0.72045342	      1.01083580	      0.42610004	     18.87121176	     -2.12123539	     -9.71948358	    -43.03261591	     12.45390236	     -2.11340723	      4.97889300	      1.68839455	     -3.85004537	    -15.07396785	     11.24200476	      2.88826415	    -15.42218309	     -2.64494153	     -0.83401639
      6.50000000	     -0.58395441	     -1.24862321	   -122.52313723	      0.71814367	      1.01083603	      0.43038698	     19.23191598	     -2.12562388	    -10.44201768	    -41.50498776	     12.62855037	     -2.18892007	      4.55118495	      1.67398171	     -4.27439015	    -14.91253931	     11.48881859	      2.76987105	    -15.48792854	     -2.61866317	     -0.84767794
      6.51000000	     -0.62724734	     -1.21968363	   -122.97789707	      0.71573872	      1.01079685	      0.43459974	     19.58843359	     -2.10169782	    -11.15914153	    -39.96597371	     12.69104977	     -2.24472282	      4.13136351	      1.65454202	     -4.70565248	    -14.75689031	     11.73406122	      2.64882172	    -15.54864074	     -2.59217954	     -0.83841751
      6.52000000	     -0.67347780	     -1.19204920	   -123.44106127	      0.71325272	      1.01072521	      0.43874123	     19.93411003	     -2.04883872	    -11.86250793	    -38.42346172	     12.65062929	     -2.27015185	      3.70910227	      1.63435532	     -5.13688865	    -14.60232971	     11.97441862	      2.51828055	    -15.61606130	     -2.56566545	     -0.79808224
      6.53000000	     -0.69348058	     -1.11289754	   -123.89777650	      0.71069557	      1.01051978	      0.44278756	     20.33831717	     -1.95779129	    -12.53839098	    -36.89003320	     12.51804565	     -2.22155873	      3.37915301	      1.59947208	     -5.60060076	    -14.50054637	     12.20809986	      2.42511354	    -15.62053092	     -2.53384747	     -0.76395706
      6.54000000	     -0.76193693	     -1.08693140	   -124.37313492	      0.70799521	      1.01041045	      0.44679189	     20.64058948	     -1.80775712	    -13.13995424	    -35.33505361	     12.29436887	     -2.13656272	      2.93112950	      1.55717551	     -6.04171578	    -14.33029203	     12.47585226	      2.27172065	    -15.70857020	     -2.49792635	     -0.70895560
      6.55000000	     -0.78619302	     -1.00229340	   -124.83180069	      0.70525674	      1.01014307	      0.45071918	     21.02193175	     -1.63716654	    -13.70172078	    -33.80638942	     11.94725412	     -2.00329101	      2.58909618	      1.51523044	     -6.49002787	    -14.20549616	     12.72157674	      2.16899256	    -15.71648948	     -2.46459021	     -0.66466271
      6.56000000	     -0.82133370	     -0.93711316	   -125.29082294	      0.70243044	      1.00987431	      0.45464087	     21.36317418	     -1.44554585	    -14.22304026	    -32.29129119	     11.55012159	     -1.82190755	      2.21157262	      1.47704705	     -6.93985810	    -14.06673796	     12.96948860	      2.05592916	    -15.74748799	     -2.43200946	     -0.59889971
      6.57000000	     -0.87250175	     -0.90875378	   -125.74465618	      0.69951967	      1.00962965	      0.45857511	     21.64838199	     -1.25215201	    -14.73274208	    -30.80537142	     11.12829029	     -1.56948992	      1.77220806	      1.45155023	     -7.38522389	    -13.89850675	     13.20775995	      1.92674494	    -15.82283239	     -2.40934631	     -0.50385112
      6.58000000	     -0.89486929	     -0.85467843	   -126.18162533	      0.69655183	      1.00928136	      0.46251322	     21.96053442	     -1.05126934	    -15.18630626	    -29.34631368	     10.64912071	     -1.34509143	      1.37592018	      1.43677033	     -7.82039619	    -13.73838422	     13.44743429	      1.83067101	    -15.84909700	     -2.38649164	     -0.45506569
      6.59000000	     -0.93458390	     -0.84923922	   -126.61320756	      0.69350400	      1.00896493	      0.46652272	     22.20741830	     -0.87382460	    -15.66579735	    -27.93750499	     10.18576759	     -1.07569936	      0.90051943	      1.44521359	     -8.24975288	    -13.54203586	     13.68077651	      1.73005897	    -15.92479970	     -2.37398679	     -0.37422610
      6.60000000	     -0.96367153	     -0.85182112	   -127.02443687	      0.69039540	      1.00860182	      0.47057937	     22.43603340	     -0.70840197	    -16.12199787	    -26.56315926	      9.71874934	     -0.82618776	      0.41918302	      1.47218567	     -8.66387736	    -13.34067873	     13.90738034	      1.64446673	    -15.99405401	     -2.36555458	     -0.34056104
      6.61000000	     -0.99550279	     -0.88588946	   -127.42159577	      0.68722115	      1.00822753	      0.47472090	     22.62444614	     -0.57532981	    -16.61584102	    -25.24671006	      9.27884231	     -0.58148593	     -0.10678407	      1.52466898	     -9.06387040	    -13.11980935	     14.12977207	      1.56738998	    -16.08323642	     -2.36464246	     -0.30870043
      6.62000000	     -1.04469617	     -0.97418355	   -127.80586677	      0.68397598	      1.00787710	      0.47897924	     22.74583581	     -0.48492860	    -17.17845613	    -24.00129012	      8.91829392	     -0.32646775	     -0.71430382	      1.60825948	     -9.44585174	    -12.86641869	     14.34921127	      1.49566078	    -16.22172057	     -2.37410984	     -0.26981182
      6.63000000	     -1.07610389	     -1.04635596	   -128.16900448	      0.68067713	      1.00744054	      0.48329231	     22.87336551	     -0.40373175	    -17.74095045	    -22.79370577	      8.55626796	     -0.12434960	     -1.28548753	      1.69811543	     -9.81695826	    -12.63931835	     14.57090605	      1.43740051	    -16.32266549	     -2.37266259	     -0.28586947
      6.64000000	     -1.12636386	     -1.17220054	   -128.52214600	      0.67730105	      1.00702961	      0.48770273	     22.93554010	     -0.36368293	    -18.38663454	    -21.66232657	      8.28882716	      0.07535344	     -1.93093730	      1.81623731	    -10.16466802	    -12.39209002	     14.78546553	      1.38607035	    -16.47587731	     -2.38477052	     -0.28487229
